ffmpeg version 2.8.11-0ubuntu0.16.04.1 Copyright (c) 2000-2017 the FFmpeg developers
  built with gcc 5.4.0 (Ubuntu 5.4.0-6ubuntu1~16.04.4) 20160609
  configuration: --prefix=/usr --extra-version=0ubuntu0.16.04.1 --build-suffix=-ffmpeg --toolchain=hardened --libdir=/usr/lib/x86_64-linux-gnu --incdir=/usr/include/x86_64-linux-gnu --cc=cc --cxx=g++ --enable-gpl --enable-shared --disable-stripping --disable-decoder=libopenjpeg --disable-decoder=libschroedinger --enable-avresample --enable-avisynth --enable-gnutls --enable-ladspa --enable-libass --enable-libbluray --enable-libbs2b --enable-libcaca --enable-libcdio --enable-libflite --enable-libfontconfig --enable-libfreetype --enable-libfribidi --enable-libgme --enable-libgsm --enable-libmodplug --enable-libmp3lame --enable-libopenjpeg --enable-libopus --enable-libpulse --enable-librtmp --enable-libschroedinger --enable-libshine --enable-libsnappy --enable-libsoxr --enable-libspeex --enable-libssh --enable-libtheora --enable-libtwolame --enable-libvorbis --enable-libvpx --enable-libwavpack --enable-libwebp --enable-libx265 --enable-libxvid --enable-libzvbi --enable-openal --enable-opengl --enable-x11grab --enable-libdc1394 --enable-libiec61883 --enable-libzmq --enable-frei0r --enable-libx264 --enable-libopencv
  libavutil      54. 31.100 / 54. 31.100
  libavcodec     56. 60.100 / 56. 60.100
  libavformat    56. 40.101 / 56. 40.101
  libavdevice    56.  4.100 / 56.  4.100
  libavfilter     5. 40.101 /  5. 40.101
  libavresample   2.  1.  0 /  2.  1.  0
  libswscale      3.  1.101 /  3.  1.101
  libswresample   1.  2.101 /  1.  2.101
  libpostproc    53.  3.100 / 53.  3.100
[mp3 @ 0x19268c0] Unknown attached picture mimetype: ('image/png', None), skipping.
[mp3 @ 0x19268c0] Skipping 0 bytes of junk at 17522.
Input #0, mp3, from 'jan-kochanowski-treny-tren-viii.mp3':
  Metadata:
    title           : Jan Kochanowski, "Treny", Tren VIII
    artist          : Jakub Wieczorek
    album           : Wolne Lektury
    encoder         : Lavf53.21.0
    genre           : Speech
    originator_reference: 7hoE5aW0r8paaaGk
    date            : 2008-10-31
    performer       : Gosia Kozera
    album_artist    : Fundacja Nowoczesna Polska
    time_reference  : 198588878
    copyright       : 2008 Fundacja Nowoczesna Polska. Licensed to the public under http://creativecommons.org/licenses/by-sa/3.0/deed.pl verify at http://wolnelektury.pl/katalog/lektura/treny-tren-viii/
    creation_time   : 0012-08-57
    encoded_by      : Pro Tools
    publisher       : Fundacja Nowoczesna Polska
  Duration: 00:01:30.91, start: 0.000000, bitrate: 65 kb/s
    Stream #0:0: Audio: mp3, 44100 Hz, mono, s16p, 64 kb/s
Output #0, null, to 'pipe:':
  Metadata:
    title           : Jan Kochanowski, "Treny", Tren VIII
    artist          : Jakub Wieczorek
    album           : Wolne Lektury
    publisher       : Fundacja Nowoczesna Polska
    genre           : Speech
    originator_reference: 7hoE5aW0r8paaaGk
    date            : 2008-10-31
    performer       : Gosia Kozera
    album_artist    : Fundacja Nowoczesna Polska
    time_reference  : 198588878
    copyright       : 2008 Fundacja Nowoczesna Polska. Licensed to the public under http://creativecommons.org/licenses/by-sa/3.0/deed.pl verify at http://wolnelektury.pl/katalog/lektura/treny-tren-viii/
    encoded_by      : Pro Tools
    encoder         : Lavf56.40.101
    Stream #0:0: Audio: pcm_s16le, 44100 Hz, mono, s16, 705 kb/s
    Metadata:
      encoder         : Lavc56.60.100 pcm_s16le
Stream mapping:
  Stream #0:0 -> #0:0 (mp3 (native) -> pcm_s16le (native))
Press [q] to stop, [?] for help
[silencedetect @ 0x1939900] silence_start: -0.00367347
[silencedetect @ 0x1939900] silence_end: 0.574694 | silence_duration: 0.578367
[silencedetect @ 0x1939900] silence_start: 1.56367
[silencedetect @ 0x1939900] silence_end: 2.0898 | silence_duration: 0.526122
[silencedetect @ 0x1939900] silence_start: 2.66082
[silencedetect @ 0x1939900] silence_end: 3.6049 | silence_duration: 0.944082
[silencedetect @ 0x1939900] silence_start: 4.88122
[silencedetect @ 0x1939900] silence_end: 7.05306 | silence_duration: 2.17184
[silencedetect @ 0x1939900] silence_start: 9.03469
[silencedetect @ 0x1939900] silence_end: 10.031 | silence_duration: 0.996327
[silencedetect @ 0x1939900] silence_start: 11.0461
[silencedetect @ 0x1939900] silence_end: 12.0163 | silence_duration: 0.970204
[silencedetect @ 0x1939900] silence_start: 13.6845
[silencedetect @ 0x1939900] silence_end: 14.7853 | silence_duration: 1.10082
[silencedetect @ 0x1939900] silence_start: 16.2967
[silencedetect @ 0x1939900] silence_end: 17.6849 | silence_duration: 1.38816
[silencedetect @ 0x1939900] silence_start: 17.7073
[silencedetect @ 0x1939900] silence_end: 18.4424 | silence_duration: 0.735102
[silencedetect @ 0x1939900] silence_start: 19.1441
[silencedetect @ 0x1939900] silence_end: 20.4278 | silence_duration: 1.28367
[silencedetect @ 0x1939900] silence_start: 21.8347
[silencedetect @ 0x1939900] silence_end: 23.8237 | silence_duration: 1.98898
[silencedetect @ 0x1939900] silence_start: 25.8053
[silencedetect @ 0x1939900] silence_end: 27.1412 | silence_duration: 1.33592
[silencedetect @ 0x1939900] silence_start: 28.1302
[silencedetect @ 0x1939900] silence_end: 30.0147 | silence_duration: 1.88449
[silencedetect @ 0x1939900] silence_start: 31.6567
[silencedetect @ 0x1939900] silence_end: 33.0188 | silence_duration: 1.36204
[silencedetect @ 0x1939900] silence_start: 34.5041
[silencedetect @ 0x1939900] silence_end: 35.9184 | silence_duration: 1.41429
[silencedetect @ 0x1939900] silence_start: 38.9188
[silencedetect @ 0x1939900] silence_end: 40.4114 | silence_duration: 1.49265
[silencedetect @ 0x1939900] silence_start: 43.5686
[silencedetect @ 0x1939900] silence_end: 44.4343 | silence_duration: 0.865714
[silencedetect @ 0x1939900] silence_start: 47.6176
[silencedetect @ 0x1939900] silence_end: 49.3192 | silence_duration: 1.70163
[silencedetect @ 0x1939900] silence_start: 49.9686
[silencedetect @ 0x1939900] silence_end: 51.0171 | silence_duration: 1.04857
[silencedetect @ 0x1939900] silence_start: 53.3906
[silencedetect @ 0x1939900] silence_end: 54.1257 | silence_duration: 0.735102
[silencedetect @ 0x1939900] silence_start: 55.8722
[silencedetect @ 0x1939900] silence_end: 56.738 | silence_duration: 0.865714
[silencedetect @ 0x1939900] silence_start: 58.5367
[silencedetect @ 0x1939900] silence_end: 62.1192 | silence_duration: 3.58245
[silencedetect @ 0x1939900] silence_start: 62.5596
[silencedetect @ 0x1939900] silence_end: 63.5037 | silence_duration: 0.944082
[silencedetect @ 0x1939900] silence_start: 64.571
[silencedetect @ 0x1939900] silence_end: 66.7951 | silence_duration: 2.22408
[silencedetect @ 0x1939900] silence_start: 68.7767
[silencedetect @ 0x1939900] silence_end: 71.2882 | silence_duration: 2.51143
[silencedetect @ 0x1939900] silence_start: 72.3816
[silencedetect @ 0x1939900] silence_end: 73.8482 | silence_duration: 1.46653
[silencedetect @ 0x1939900] silence_start: 75.9865
[silencedetect @ 0x1939900] silence_end: 78.1322 | silence_duration: 2.14571
[silencedetect @ 0x1939900] silence_start: 81.5245
[silencedetect @ 0x1939900] silence_end: 83.618 | silence_duration: 2.09347
[silencedetect @ 0x1939900] silence_start: 85.2339
[silencedetect @ 0x1939900] silence_end: 86.4392 | silence_duration: 1.20531
[silencedetect @ 0x1939900] silence_start: 87.9506
size=N/A time=00:01:30.90 bitrate=N/A    
video:0kB audio:7830kB subtitle:0kB other streams:0kB global headers:0kB muxing overhead: unknown
